<?xml version="1.0" standalone="no"?> <!DOCTYPE svg PUBLIC "-//W3C//DTD SVG 20010904//EN" "http://www.w3.org/TR/2001/REC-SVG-20010904/DTD/svg10.dtd"> <svg version="1.0" xmlns="http://www.w3.org/2000/svg" width="600.000000pt" height="327.000000pt" viewBox="0 0 600.000000 327.000000" preserveAspectRatio="xMidYMid meet"> <g transform="translate(0.000000,327.000000) scale(0.100000,-0.100000)" fill="#a5ec22" stroke="none"> <path d="M2170 2220 c0 -7 3 -10 7 -7 3 4 3 10 0 14 -4 3 -7 0 -7 -7z"/> <path d="M2205 2188 c-3 -24 -9 -52 -11 -63 -4 -16 -3 -17 5 -5 10 17 26 110 18 110 -3 0 -8 -19 -12 -42z"/> <path d="M2151 2173 c-10 -26 -10 -27 4 -9 8 11 15 23 15 28 0 15 -7 8 -19 -19z"/> <path d="M2075 2079 c-22 -10 -85 -33 -140 -51 l-100 -32 80 -25 c44 -14 72 -26 63 -29 -10 -2 -18 -8 -18 -14 0 -5 -7 -7 -16 -4 -8 3 -13 2 -10 -3 8 -12 -37 -23 -61 -15 -13 4 -14 3 -5 -3 10 -7 -1 -16 -39 -31 -37 -16 -48 -18 -39 -7 16 19 9 19 -34 -2 -24 -11 -33 -20 -26 -28 6 -7 2 -15 -10 -23 -16 -10 -18 -9 -15 9 3 13 0 19 -8 16 -7 -2 -10 -13 -9 -23 3 -15 1 -16 -8 -7 -16 15 -32 9 -101 -38 -106 -71 -188 -166 -222 -259 -22 -59 -22 -172 0 -236 15 -45 75 -148 93 -159 4 -2 2 12 -6 33 -22 61 -17 187 10 263 44 126 160 265 311 372 63 44 231 133 310 164 29 11 28 11 -12 6 -31 -4 -46 -1 -58 11 -9 9 -12 16 -6 16 6 0 11 6 11 14 0 13 41 26 86 26 12 0 36 12 51 26 l28 25 -25 -7 c-39 -10 -42 -10 -48 5 -3 8 0 11 7 7 6 -4 11 -1 11 8 0 9 -1 16 -2 15 -2 0 -21 -9 -43 -20z"/> <path d="M2325 1965 c-141 -38 -346 -155 -464 -265 -57 -53 -66 -57 -77 -38 -5 7 -3 8 7 3 12 -8 12 -6 0 8 -7 9 -10 24 -7 33 4 10 -7 5 -27 -12 -67 -59 -136 -147 -175 -222 -163 -313 35 -591 420 -592 83 0 111 14 50 25 -106 19 -213 99 -259 194 -25 51 -28 66 -28 161 1 116 17 171 86 287 63 104 266 300 289 277 4 -5 22 -49 39 -99 17 -49 34 -97 37 -105 4 -10 10 -4 19 20 18 48 19 69 1 45 -13 -18 -14 -17 -29 6 -8 13 -18 35 -22 48 -6 20 -4 23 12 19 17 -5 21 3 32 53 14 69 50 110 126 145 56 26 45 30 -30 9z m-565 -311 c-11 -12 -11 -15 0 -12 26 6 21 -27 -11 -70 -21 -28 -34 -39 -39 -32 -10 16 -22 15 -33 -5 -6 -12 -4 -20 10 -30 15 -12 16 -14 2 -15 -19 0 -55 37 -46 47 4 3 7 1 7 -6 0 -7 5 -9 11 -6 6 4 8 9 5 12 -2 3 7 16 22 29 15 13 21 24 15 24 -7 0 -13 -5 -13 -11 0 -5 -4 -8 -10 -4 -5 3 -1 14 10 25 11 11 20 24 20 30 0 5 12 16 28 24 35 19 37 19 22 0z"/> <path d="M2113 1963 c4 -3 10 -3 14 0 3 4 0 7 -7 7 -7 0 -10 -3 -7 -7z"/> <path d="M1833 1893 c4 -3 10 -3 14 0 3 4 0 7 -7 7 -7 0 -10 -3 -7 -7z"/> <path d="M3260 1811 c-139 -45 -209 -176 -168 -315 17 -56 90 -128 153 -149 214 -73 413 96 355 304 -13 47 -72 115 -124 141 -45 23 -170 34 -216 19z m158 -107 c50 -29 67 -63 67 -131 0 -52 -4 -66 -25 -88 -53 -56 -116 -70 -180 -37 -99 49 -107 191 -15 252 37 24 116 27 153 4z"/> <path d="M1862 1779 c-23 -17 -42 -33 -42 -35 0 -6 51 27 74 48 31 28 14 21 -32 -13z"/> <path d="M2544 1575 l0 -235 58 0 57 0 3 137 3 138 115 -137 115 -137 53 0 52 -1 0 235 0 235 -60 0 -59 0 -3 -136 -3 -135 -113 135 -114 136 -52 0 -52 0 0 -235z"/> <path d="M3629 1788 c7 -20 44 -102 176 -396 l24 -53 61 3 61 3 100 224 c54 123 99 228 99 233 0 4 -26 8 -57 8 l-58 0 -70 -160 c-38 -88 -72 -160 -75 -160 -3 0 -36 72 -74 160 l-69 160 -63 0 c-62 0 -63 -1 -55 -22z"/> <path d="M4311 1788 c-5 -13 -52 -117 -105 -232 -53 -115 -96 -210 -96 -213 0 -2 28 -3 61 -1 l61 3 18 45 18 45 114 3 115 3 22 -51 22 -50 60 0 c72 0 72 -12 -8 158 -31 64 -75 160 -99 212 l-43 95 -66 3 c-60 3 -66 1 -74 -20z m113 -181 l35 -77 -74 0 -75 0 26 58 c14 31 30 68 35 81 5 13 12 22 14 19 2 -2 20 -39 39 -81z"/> <path d="M1870 1400 c0 -7 3 -10 7 -7 3 4 3 10 0 14 -4 3 -7 0 -7 -7z"/> <path d="M1862 1283 c9 -126 67 -216 176 -269 50 -25 69 -28 157 -28 55 -1 114 3 130 8 l30 9 -30 7 c-26 6 -28 8 -10 14 11 4 28 11 38 14 9 4 -25 7 -77 8 -80 0 -101 4 -148 27 -81 40 -141 97 -169 161 -13 31 -29 56 -35 56 -7 0 -15 7 -18 16 -5 14 -9 14 -23 3 -14 -13 -16 -11 -11 14 3 15 1 30 -5 34 -7 4 -8 -21 -5 -74z"/> <path d="M3030 1120 l0 -90 65 0 c37 0 65 4 65 10 0 6 -22 10 -50 10 -49 0 -50 1 -50 30 0 29 2 30 45 30 25 0 45 5 45 10 0 6 -20 10 -45 10 -43 0 -45 1 -45 30 0 29 1 30 50 30 28 0 50 5 50 10 0 6 -28 10 -65 10 l-65 0 0 -90z"/> <path d="M3362 1194 c-25 -17 -29 -46 -8 -63 7 -6 31 -17 52 -25 27 -9 39 -19 39 -32 0 -16 -7 -19 -52 -18 -52 2 -69 -8 -37 -20 9 -3 31 -6 50 -6 100 0 100 81 1 104 -32 8 -46 34 -26 47 8 5 31 7 52 4 37 -5 51 7 21 19 -28 11 -69 6 -92 -10z"/> <path d="M3540 1120 c0 -73 3 -90 15 -90 11 0 15 11 15 40 l0 40 55 0 55 0 0 -40 c0 -22 5 -40 10 -40 6 0 10 37 10 90 0 88 -16 126 -22 53 l-3 -38 -52 -3 -53 -3 0 40 c0 30 -4 41 -15 41 -12 0 -15 -17 -15 -90z"/> <path d="M3803 1192 c-75 -59 -36 -162 62 -162 36 0 48 5 69 31 35 41 34 83 -3 120 -35 34 -92 39 -128 11z m115 -29 c32 -44 -2 -113 -55 -113 -34 0 -73 36 -73 67 0 13 12 35 26 50 20 20 31 24 57 19 18 -3 38 -14 45 -23z"/> <path d="M4020 1120 c0 -73 3 -90 15 -90 9 0 15 9 15 25 0 20 5 25 24 25 31 0 78 18 88 33 4 7 8 24 8 39 0 38 -33 58 -97 58 l-53 0 0 -90z m110 50 c31 -31 11 -60 -40 -60 -40 0 -40 0 -40 40 0 38 2 40 30 40 17 0 39 -9 50 -20z"/> <path d="M3215 1100 c-4 -6 10 -10 34 -10 23 0 41 5 41 10 0 6 -15 10 -34 10 -19 0 -38 -4 -41 -10z"/> <path d="M2375 1020 c-13 -6 -15 -9 -5 -9 8 0 22 4 30 9 18 12 2 12 -25 0z"/> </g> </svg>